<svg id="Component_3_1" data-name="Component 3 – 1" xmlns="http://www.w3.org/2000/svg" width="28" height="28" viewBox="0 0 28 28">
  <rect id="Rectangle_15" data-name="Rectangle 15" width="28" height="28" transform="translate(0 0)" fill="rgba(37,37,37,0)"/>
  <path id="Path_19" data-name="Path 19" d="M16.8,49.572a6.892,6.892,0,0,1-1.98.543,3.457,3.457,0,0,0,1.515-1.907,6.9,6.9,0,0,1-2.189.836,3.45,3.45,0,0,0-5.873,3.144,9.785,9.785,0,0,1-7.1-3.6,3.45,3.45,0,0,0,1.067,4.6,3.433,3.433,0,0,1-1.561-.431c0,.014,0,.029,0,.043a3.449,3.449,0,0,0,2.765,3.38,3.45,3.45,0,0,1-1.557.059A3.45,3.45,0,0,0,5.1,58.633,6.915,6.915,0,0,1,.823,60.109,6.977,6.977,0,0,1,0,60.06a9.755,9.755,0,0,0,5.283,1.549A9.74,9.74,0,0,0,15.091,51.8q0-.224-.01-.446A7,7,0,0,0,16.8,49.572Z" transform="translate(5.599 -40.956)" fill="#fff"/>
</svg>
