<svg xmlns="http://www.w3.org/2000/svg" width="28" height="28" viewBox="0 0 28 28">
    <defs>
        <style>
            .cls-1{fill:rgba(37,37,37,0)}.cls-2{fill:#221d1d}
        </style>
    </defs>
    <g id="Group_261" data-name="Group 261" transform="translate(-10426 172)">
        <path id="Rectangle_15" d="M0 0h28v28H0z" class="cls-1" data-name="Rectangle 15" transform="translate(10426 -172)"/>
        <path id="Path_19" d="M16.8 49.572a6.892 6.892 0 0 1-1.98.543 3.457 3.457 0 0 0 1.515-1.907 6.9 6.9 0 0 1-2.189.836 3.45 3.45 0 0 0-5.873 3.144 9.785 9.785 0 0 1-7.1-3.6 3.45 3.45 0 0 0 1.067 4.6 3.433 3.433 0 0 1-1.561-.431v.043a3.449 3.449 0 0 0 2.765 3.38 3.45 3.45 0 0 1-1.557.059A3.45 3.45 0 0 0 5.1 58.633a6.915 6.915 0 0 1-4.277 1.476A6.977 6.977 0 0 1 0 60.06a9.755 9.755 0 0 0 5.283 1.549 9.74 9.74 0 0 0 9.808-9.809q0-.224-.01-.446a7 7 0 0 0 1.719-1.782z" class="cls-2" data-name="Path 19" transform="translate(10431.599 -212.956)"/>
    </g>
</svg>
