<svg id="Component_1_1" data-name="Component 1 – 1" xmlns="http://www.w3.org/2000/svg" width="28" height="28" viewBox="0 0 28 28">
  <rect id="Rectangle_14" data-name="Rectangle 14" width="28" height="28" fill="rgba(37,37,37,0)"/>
  <path id="XMLID_807_" d="M14.459,72.1A22.867,22.867,0,0,1,16.1,73.758a4.808,4.808,0,0,1,.59.85c.227.439.021.922-.372.949H13.874a1.89,1.89,0,0,1-1.558-.633c-.339-.345-.653-.713-.978-1.069a2.317,2.317,0,0,0-.44-.391.511.511,0,0,0-.815.2A2.571,2.571,0,0,0,9.824,74.8c-.026.576-.2.728-.779.754a6.259,6.259,0,0,1-3.5-.753A7.738,7.738,0,0,1,3.186,72.6a29.7,29.7,0,0,1-3.1-5.528c-.2-.436-.053-.67.428-.678.8-.016,1.6-.014,2.4,0a.7.7,0,0,1,.665.5A14.853,14.853,0,0,0,5.2,69.9a2.567,2.567,0,0,0,.613.674.373.373,0,0,0,.633-.186,2.088,2.088,0,0,0,.141-.631,9.4,9.4,0,0,0-.039-2.212.922.922,0,0,0-.785-.844c-.234-.044-.2-.131-.086-.265a.88.88,0,0,1,.751-.374H9.192c.435.086.532.282.592.72l0,3.072c0,.17.085.673.39.785.245.08.406-.116.552-.271a9.527,9.527,0,0,0,1.557-2.394c.187-.378.349-.771.5-1.163a.592.592,0,0,1,.625-.428l2.662,0a1.4,1.4,0,0,1,.235.014c.449.076.572.269.433.707a6.647,6.647,0,0,1-1.058,1.835c-.444.614-.919,1.208-1.359,1.826-.4.564-.372.849.13,1.339Zm0,0" transform="translate(5.6 -56.958)" fill="#fff" fill-rule="evenodd"/>
</svg>
