<svg xmlns="http://www.w3.org/2000/svg" width="28" height="28" viewBox="0 0 28 28">
    <defs>
        <style>
            .cls-1{fill:rgba(37,37,37,0)}.cls-2{fill:#221d1d;fill-rule:evenodd}
        </style>
    </defs>
    <g id="Group_259" data-name="Group 259" transform="translate(-10480 172)">
        <path id="Rectangle_14" d="M0 0h28v28H0z" class="cls-1" data-name="Rectangle 14" transform="translate(10480 -172)"/>
        <path id="XMLID_807_" d="M14.459 72.1a22.867 22.867 0 0 1 1.641 1.658 4.808 4.808 0 0 1 .59.85c.227.439.021.922-.372.949h-2.444a1.89 1.89 0 0 1-1.558-.633c-.339-.345-.653-.713-.978-1.069a2.317 2.317 0 0 0-.44-.391.511.511 0 0 0-.815.2 2.571 2.571 0 0 0-.259 1.136c-.026.576-.2.728-.779.754a6.259 6.259 0 0 1-3.5-.753A7.738 7.738 0 0 1 3.186 72.6a29.7 29.7 0 0 1-3.1-5.528c-.2-.436-.053-.67.428-.678.8-.016 1.6-.014 2.4 0a.7.7 0 0 1 .665.5A14.853 14.853 0 0 0 5.2 69.9a2.567 2.567 0 0 0 .613.674.373.373 0 0 0 .633-.186 2.088 2.088 0 0 0 .141-.631 9.4 9.4 0 0 0-.039-2.212.922.922 0 0 0-.785-.844c-.234-.044-.2-.131-.086-.265a.88.88 0 0 1 .751-.374h2.764c.435.086.532.282.592.72v3.072c0 .17.085.673.39.785.245.08.406-.116.552-.271a9.527 9.527 0 0 0 1.557-2.394c.187-.378.349-.771.5-1.163a.592.592 0 0 1 .625-.428h2.662a1.4 1.4 0 0 1 .235.014c.449.076.572.269.433.707a6.647 6.647 0 0 1-1.058 1.835c-.444.614-.919 1.208-1.359 1.826-.4.564-.372.849.13 1.339zm0 0" class="cls-2" transform="translate(10485.6 -228.958)"/>
    </g>
</svg>
