<svg xmlns="http://www.w3.org/2000/svg" width="26.4" height="24" viewBox="0 0 26.4 24">
  <defs>
    <style>
      .cls-1, .cls-4 {
        fill: #ff6565;
      }

      .cls-1 {
        font-size: 12px;
        font-family: Gilroy-Medium, Gilroy;
        font-weight: 500;
      }

      .cls-2 {
        fill: none;
      }

      .cls-3, .cls-4 {
        stroke: none;
      }
    </style>
  </defs>
  <g id="Group_226" data-name="Group 226" transform="translate(-1042 -2906)">
    <text id="_" data-name="!" class="cls-1" transform="translate(1053.586 2925)"><tspan x="0" y="0">!</tspan></text>
    <g id="Polygon_1" data-name="Polygon 1" class="cls-2" transform="translate(1042 2906)">
      <path class="cls-3" d="M10.571,4.779a3,3,0,0,1,5.257,0l8.126,14.775A3,3,0,0,1,21.326,24H5.074a3,3,0,0,1-2.629-4.446Z"/>
      <path class="cls-4" d="M 13.19999885559082 4.725116729736328 C 12.93332862854004 4.725116729736328 12.27143859863281 4.800838470458984 11.88566875457764 5.502237319946289 L 3.759489059448242 20.27712821960449 C 3.387308120727539 20.95382690429688 3.651678085327148 21.54197692871094 3.782629013061523 21.76343727111816 C 3.913568496704102 21.98489761352539 4.301507949829102 22.49999809265137 5.073818206787109 22.49999809265137 L 21.3261890411377 22.49999809265137 C 22.09848785400391 22.49999809265137 22.48642921447754 21.98489761352539 22.61736869812012 21.76343727111816 C 22.74831962585449 21.54197692871094 23.0126895904541 20.95382690429688 22.6405086517334 20.27712821960449 L 14.514328956604 5.502237319946289 C 14.12855911254883 4.800838470458984 13.4666690826416 4.725116729736328 13.19999885559082 4.725116729736328 M 13.19999885559082 3.225116729736328 C 14.22937870025635 3.225116729736328 15.25875854492188 3.743198394775391 15.82864856719971 4.77935791015625 L 23.9548282623291 19.55424690246582 C 25.05447959899902 21.55359649658203 23.60799789428711 23.99999809265137 21.3261890411377 23.99999809265137 L 5.073818206787109 23.99999809265137 C 2.791997909545898 23.99999809265137 1.345518112182617 21.55359649658203 2.445169448852539 19.55424690246582 L 10.57134914398193 4.77935791015625 C 11.14123916625977 3.743198394775391 12.17061901092529 3.225116729736328 13.19999885559082 3.225116729736328 Z"/>
    </g>
  </g>
</svg>
